<svg id="Layer_3" data-name="Layer 3" xmlns="http://www.w3.org/2000/svg" viewBox="0 0 741.86 328.57"><title>logo-svg</title><path d="M130.67,218c3-29.67,28.83-64.5,137.83-38,40-62,107-42,95.5,15,4.5,1,9.5,6.5,11.5,11C400,170.2,478.23,183.27,496,199.44a4,4,0,0,0,6-.82c11.45-18.75,53.16-37.69,78.93-.61,16-24,95-61,121.5,28.5,10-1.5,94-21.5,93,33s-40.5,42-44,43.5c9.5,34-5.83,103-64.83,66-12.78,14.85-36.27,27-65.17,23.5-7.5,21-25,57.5-51.5,78,6.5-37.5,9.5-54,7-75.5-24,15.5-58,2-60-13-32.5,12-58,7.5-73-10-6.5,21-65,35-88.5,2,8.5,43.5,2.36,74.13-26,79-32,5.5-42.33-7-50.83-90-8,14-36,22-57.67,9-5,49.5-45,61.5-68.5,33.5-46.5,26-68-12.5-84.5-60C49.42,292,48.15,265,68.5,241,85,219.33,104.5,209.67,130.67,218Z" transform="translate(-53.65 -141.93)" style="fill:#b2d234"/><path d="M110.25,250c-19.22,1.75-24,16.6-27.09,26.65s2.62,15.73,5.24,20.1,12.23,37.57,21.84,65.09S125.55,385,128.6,384.55s7-3.93,5.24-11.36S116.37,324.7,118.12,323c1.75-1.31,13.54.87,22.28-14.42C155.25,276.21,130.44,248.16,110.25,250Zm9.61,54.75a16.72,16.72,0,0,1-10-1.45c-5.24-14.85-6.55-21.84-7.43-27.52,2.62-3.93,6.55-7.86,10.48-7.43s11.74,6.16,12.24,17.66S123.36,304.25,119.86,304.75Z" transform="translate(-53.65 -141.93)" style="fill:#fff"/><path d="M236.82,327.74c-5.75-4.25-12.5-9.25-40.23-27.74,22.49-18.74,14.49-51-5.25-62.23s-40.19.71-41.23,4.25c-1.25,4.25.75,12.75,1.25,16.24s18.49,115.21,20.24,120,5.25,12.75,13.74,10.5,5-14.24,3.75-17.74-7.75-48.48-9-57.48c0,0,43.48,27.49,48.48,30s8.75-1,10.5-3A9.06,9.06,0,0,0,236.82,327.74Zm-61.23-40c-3.75-18-8-34-4-35.49s16.49-.75,19.49,13.49S184.34,287.26,175.59,287.76Z" transform="translate(-53.65 -141.93)" style="fill:#fff"/><path d="M277.05,272.76C263.81,252,238.6,258.19,231.57,265c-6.25,10.25-5,25,1.25,41.23s25,22.24,37.49,16.24S290.3,293.5,277.05,272.76Zm-17.74,33.49c-1.75.25-14-4-12.5-24.74,6.75-5.25,15.24-4.25,18.24,9.5S261.06,306,259.31,306.25Z" transform="translate(-53.65 -141.93)" style="fill:#fff"/><path d="M340.28,222.53c-8.75,7-12,7.86-17.49,8.75-4.12.66-9.2-.18-15-2-1.86-38.83,13.3-39.29,20.49-39.52,3.5-.5,8.25-2.5,8-10,0,0,.5-11.5-18-7.75-19.9,3.32-28.44,29.14-28.93,50-10-4.48-21-9.84-32.3-14.49-26.74-11-63.11-9.37-81.22-6.25-14.49,2.5-9.5,23,5.25,18s45.48-.75,59.48,2.25c12.23,2.62,28.28,11.54,50.65,21.42,4.67,38.62,17,162.48,21.07,174.5,4.5,13.24,19.49,7.5,18-7.25-1.4-13.73-14.72-108.35-20.58-160.43,20.79,4.15,38.57-7.3,42.32-17C356,222.43,347.11,217.07,340.28,222.53Z" transform="translate(-53.65 -141.93)" style="fill:#fff"/><path d="M349.27,267.26c1.09,15.49,3.75,35.74,8.25,46.48S351.77,336,343,327.49c-11.79-11.45-12.75-59.23-12-63C330.78,255.52,347.77,246,349.27,267.26Z" transform="translate(-53.65 -141.93)" style="fill:#fff"/><path d="M371.77,252c-1.25-13.24,16-20.43,18-1.75,0.5,4.75,4.75,77.22,6.25,85.22,11-3.25,13.74-3.75,25.49-7.5s16.24-.75,17.24,4-0.25,10.25-6.5,12.5-29.49,9.75-40.23,13.24-13.24-4-14-8.25S372.27,262.52,371.77,252Z" transform="translate(-53.65 -141.93)" style="fill:#fff"/><path d="M477.47,233.53c-5.5-1.75-57.23-14-60.23-14.24s-15.16-2.56-16.49,7.25c-0.75,5.5,2.25,10,9,10.5,2.62,0.19,9.64,1.63,18.1,3.51-1.58,13.58-4.82,42.14-4.6,47.47,0.25,6.25.75,18.24,8.75,17.49s10.25-6.5,9.5-17.24c-0.6-8.65,2.84-32.19,5.12-43.39,12.53,3,23.87,5.71,26.12,6.16,5,1,9.5-1.5,10.5-6S483,235.28,477.47,233.53Z" transform="translate(-53.65 -141.93)" style="fill:#fff"/><path d="M521.71,330.24c-9.5-11-36,29.49-46.48-.75C501,322.24,517,278.76,492,268s-46.48,32.24-37,60,19.74,31.24,33.74,30S533.2,340.48,521.71,330.24ZM473.23,310c-1-1.75-1.5-9,1.25-15s8.5-9.75,10.25-8.75,2.27,8.76-1.25,15C480.22,307,474.91,312.95,473.23,310Z" transform="translate(-53.65 -141.93)" style="fill:#fff"/><path d="M557.81,277.79c1-2.41,15.83-24.43,23.39-32.68s4.47-12,2.06-14.11-7.91-6.54-14.45.69c-5.43,6-14.65,18.4-22,29.13-0.58-16.52-.59-32.72-0.41-40.83,0.34-15.14-18.27-12-18.92.34-0.69,13.07.69,50.92,3.1,71.56s9.29,58.17,13.07,72.62,21.33,9.29,18.23-3.44c-2.17-8.92-8.6-40.63-12-61.62-0.24-1.45-.46-3-0.67-4.66,9.44,4.18,32.06,15.54,38.17,20.49,7.22,5.85,17.89,20.64,25.46,13.42C624.33,317.76,608.39,304.62,557.81,277.79Z" transform="translate(-53.65 -141.93)" style="fill:#fff"/><path d="M610.14,353.82c-0.39-8.57,4-8.92,18.2-9.63,13.66-.69,21.54-10.6,20.64-16.86-2.23-15.58-13.42-21-32-43s-11.35-59.86,1.38-72.25,29.63-15,40.64-3.33,16.47,25.69,16.47,32.57-4.13,8.26-6.54,9.29S659,252,656.55,242s-7.3-25-15.48-22c-8.61,3.15-17.55,10-15.83,32.68s14.11,28.9,20.3,36.12,24.46,20.7,22.71,39.56c-1.56,16.8-17.85,35.5-43,34.06C613.5,361.75,610.36,358.65,610.14,353.82Z" transform="translate(-53.65 -141.93)" style="fill:#fff"/><path d="M758,255.25c-9.75.5-78,4.75-90.5,5.75-14.51,1.16-11,17.5-2.25,17.5,4,0,20.76-.68,39-1.56-1.11,19.22-3.33,53.29,1.26,64.56,5,12.25,21.25,10.25,18.75-2.75C722,327,720.15,291.38,722.37,276c15.45-.83,29.22-1.68,34.13-2.27C769,272.25,767.75,254.75,758,255.25Z" transform="translate(-53.65 -141.93)" style="fill:#fff"/></svg>