<?xml version="1.0" standalone="no"?>
<!DOCTYPE svg PUBLIC "-//W3C//DTD SVG 20010904//EN"
 "http://www.w3.org/TR/2001/REC-SVG-20010904/DTD/svg10.dtd">
<svg version="1.0" xmlns="http://www.w3.org/2000/svg"
 width="640.000000pt" height="640.000000pt" viewBox="0 0 640.000000 640.000000"
 preserveAspectRatio="xMidYMid meet">
<metadata>
Created by potrace 1.11, written by Peter Selinger 2001-2013
</metadata>
<g transform="translate(0.000000,640.000000) scale(0.100000,-0.100000)"
fill="#000000" stroke="none">
<path d="M3045 6100 c-411 -47 -755 -218 -1051 -521 -122 -126 -187 -207 -291
-364 -182 -273 -254 -418 -306 -615 -28 -108 -30 -126 -31 -305 -1 -214 8
-274 74 -480 43 -135 41 -108 100 -960 81 -1153 125 -1486 235 -1778 164 -437
490 -725 890 -785 414 -63 766 38 1038 297 130 124 279 364 341 550 53 161 69
282 63 476 -5 138 -34 501 -53 646 l-5 46 53 30 c124 71 303 220 416 348 105
119 291 415 374 595 203 442 252 925 139 1373 -136 540 -475 990 -936 1246
-164 91 -378 163 -570 191 -99 15 -385 20 -480 10z m420 -925 c342 -90 625
-443 700 -872 19 -111 19 -317 0 -429 -35 -198 -130 -417 -254 -581 -107 -142
-237 -239 -398 -297 -85 -30 -93 -31 -250 -30 l-163 1 -6 -35 c-13 -67 11
-422 72 -1077 33 -361 40 -506 25 -576 -15 -72 -59 -141 -112 -176 -38 -25
-51 -28 -128 -28 -69 0 -93 4 -121 20 -104 62 -182 268 -225 600 -20 156 -58
606 -90 1080 -77 1135 -74 1110 -133 1285 -36 107 -46 153 -50 225 -8 153 23
238 167 452 176 263 354 398 591 449 82 17 291 11 375 -11z"/>
<path d="M3180 4607 c-51 -21 -106 -56 -169 -105 -23 -18 -25 -29 -33 -148
-10 -135 -5 -324 13 -579 13 -171 15 -177 105 -221 104 -51 202 -66 253 -39
81 41 169 225 221 460 49 223 5 435 -117 566 -86 92 -164 111 -273 66z"/>
</g>
</svg>
